<svg width="3416" height="2057" xmlns="http://www.w3.org/2000/svg" xmlns:xlink="http://www.w3.org/1999/xlink" xml:space="preserve" overflow="hidden"><g transform="translate(-207 -107)"><text fill="#C00000" font-family="Times New Roman,Times New Roman_MSFontService,sans-serif" font-weight="700" font-size="110" transform="matrix(1 0 0 1 273.625 246)">AF3</text><text fill="#C00000" font-family="Times New Roman,Times New Roman_MSFontService,sans-serif" font-weight="700" font-size="110" transform="matrix(1 0 0 1 475.292 246)">-</text><text fill="#C00000" font-family="Times New Roman,Times New Roman_MSFontService,sans-serif" font-weight="700" font-size="110" transform="matrix(1 0 0 1 511.958 246)">Vina</text><text fill="#C00000" font-family="Times New Roman,Times New Roman_MSFontService,sans-serif" font-weight="700" font-size="110" transform="matrix(1 0 0 1 734.181 246)">-</text><text fill="#C00000" font-family="Times New Roman,Times New Roman_MSFontService,sans-serif" font-weight="700" font-size="110" transform="matrix(1 0 0 1 770.848 246)">MM</text><text fill="#C00000" font-family="Times New Roman,Times New Roman_MSFontService,sans-serif" font-weight="700" font-size="110" transform="matrix(1 0 0 1 978.244 246)">/P</text><text fill="#C00000" font-family="Times New Roman,Times New Roman_MSFontService,sans-serif" font-weight="700" font-size="110" transform="matrix(1 0 0 1 1075.64 246)">BSA </text><text fill="#C00000" font-family="Times New Roman,Times New Roman_MSFontService,sans-serif" font-weight="700" font-size="110" transform="matrix(1 0 0 1 1311.34 246)">for PFAS Docking in Proteins</text><rect x="276.5" y="525.5" width="1056" height="1273" stroke="#042433" stroke-width="6.875" stroke-miterlimit="8" fill="none"/><rect x="1900.5" y="525.5" width="1056" height="1273" stroke="#042433" stroke-width="6.875" stroke-miterlimit="8" fill="none"/><text font-family="Times New Roman,Times New Roman_MSFontService,sans-serif" font-weight="700" font-size="110" transform="matrix(1 0 0 1 703.18 651)">AF3</text><text font-family="Times New Roman,Times New Roman_MSFontService,sans-serif" font-weight="700" font-size="110" transform="matrix(1 0 0 1 2038.98 654)">AF3Pocket</text><text font-family="Times New Roman,Times New Roman_MSFontService,sans-serif" font-weight="700" font-size="110" transform="matrix(1 0 0 1 2558.05 654)">-</text><text font-family="Times New Roman,Times New Roman_MSFontService,sans-serif" font-weight="700" font-size="110" transform="matrix(1 0 0 1 2594.71 654)">Vina</text><path d="M549.5 910C549.5 879.901 569.871 855.5 595 855.5 620.129 855.5 640.5 879.901 640.5 910 640.5 940.1 620.129 964.5 595 964.5 569.871 964.5 549.5 940.1 549.5 910Z" stroke="#042433" stroke-width="6.875" stroke-miterlimit="8" fill="#C00000" fill-rule="evenodd"/><path d="M741.5 1049.5C741.5 1019.68 761.871 995.5 787 995.5 812.129 995.5 832.5 1019.68 832.5 1049.5 832.5 1079.32 812.129 1103.5 787 1103.5 761.871 1103.5 741.5 1079.32 741.5 1049.5Z" stroke="#042433" stroke-width="6.875" stroke-miterlimit="8" fill="#156082" fill-rule="evenodd"/><path d="M966.5 990.5C966.5 960.677 986.871 936.5 1012 936.5 1037.13 936.5 1057.5 960.677 1057.5 990.5 1057.5 1020.32 1037.13 1044.5 1012 1044.5 986.871 1044.5 966.5 1020.32 966.5 990.5Z" stroke="#042433" stroke-width="6.875" stroke-miterlimit="8" fill="#156082" fill-rule="evenodd"/><path d="M583.5 1571C583.5 1540.9 603.871 1516.5 629 1516.5 654.129 1516.5 674.5 1540.9 674.5 1571 674.5 1601.1 654.129 1625.5 629 1625.5 603.871 1625.5 583.5 1601.1 583.5 1571Z" stroke="#042433" stroke-width="6.875" stroke-miterlimit="8" fill="#156082" fill-rule="evenodd"/><path d="M2151.5 964.5C2151.5 934.677 2171.87 910.5 2197 910.5 2222.13 910.5 2242.5 934.677 2242.5 964.5 2242.5 994.323 2222.13 1018.5 2197 1018.5 2171.87 1018.5 2151.5 994.323 2151.5 964.5Z" stroke="#042433" stroke-width="6.875" stroke-miterlimit="8" fill="#C00000" fill-rule="evenodd"/><path d="M2395.5 1056.5C2395.5 1026.68 2415.87 1002.5 2441 1002.5 2466.13 1002.5 2486.5 1026.68 2486.5 1056.5 2486.5 1086.32 2466.13 1110.5 2441 1110.5 2415.87 1110.5 2395.5 1086.32 2395.5 1056.5Z" stroke="#042433" stroke-width="6.875" stroke-miterlimit="8" fill="#156082" fill-rule="evenodd"/><path d="M2600.5 1366C2600.5 1335.9 2620.87 1311.5 2646 1311.5 2671.13 1311.5 2691.5 1335.9 2691.5 1366 2691.5 1396.1 2671.13 1420.5 2646 1420.5 2620.87 1420.5 2600.5 1396.1 2600.5 1366Z" stroke="#042433" stroke-width="6.875" stroke-miterlimit="8" fill="#156082" fill-rule="evenodd"/><path d="M2281.5 1394.5C2281.5 1364.68 2301.87 1340.5 2327 1340.5 2352.13 1340.5 2372.5 1364.68 2372.5 1394.5 2372.5 1424.32 2352.13 1448.5 2327 1448.5 2301.87 1448.5 2281.5 1424.32 2281.5 1394.5Z" stroke="#042433" stroke-width="6.875" stroke-miterlimit="8" fill="#156082" fill-rule="evenodd"/><path d="M381.5 968C381.5 848.983 557.004 752.5 773.5 752.5 989.996 752.5 1165.5 848.983 1165.5 968 1165.5 1087.02 989.996 1183.5 773.5 1183.5 557.004 1183.5 381.5 1087.02 381.5 968Z" stroke="#042433" stroke-width="6.875" stroke-miterlimit="8" fill="none" fill-rule="evenodd"/><path d="M2053.5 1037.5C2053.5 933.118 2196.32 848.5 2372.5 848.5 2548.68 848.5 2691.5 933.118 2691.5 1037.5 2691.5 1141.88 2548.68 1226.5 2372.5 1226.5 2196.32 1226.5 2053.5 1141.88 2053.5 1037.5Z" stroke="#042433" stroke-width="6.875" stroke-miterlimit="8" fill="none" fill-rule="evenodd"/><path d="M1.54948-3.06847 343.851 169.784 340.752 175.92-1.54948 3.06847ZM344.409 158.512 362.759 183.182 332.013 183.06Z" transform="matrix(1 0 0 -1 1165.5 968.682)"/><text font-family="Times New Roman,Times New Roman_MSFontService,sans-serif" font-weight="400" font-size="110" transform="matrix(1 0 0 1 1570.47 688)">Δ</text><text font-family="Times New Roman,Times New Roman_MSFontService,sans-serif" font-weight="400" font-size="110" transform="matrix(1 0 0 1 1640.94 688)">G1</text><text font-family="Times New Roman,Times New Roman_MSFontService,sans-serif" font-weight="400" font-size="110" transform="matrix(1 0 0 1 1570.47 820)">Δ</text><text font-family="Times New Roman,Times New Roman_MSFontService,sans-serif" font-weight="400" font-size="110" transform="matrix(1 0 0 1 1640.94 820)">G2</text><text font-family="Times New Roman,Times New Roman_MSFontService,sans-serif" font-weight="400" font-size="110" transform="matrix(1 0 0 1 1570.47 952)">Δ</text><text font-family="Times New Roman,Times New Roman_MSFontService,sans-serif" font-weight="400" font-size="110" transform="matrix(1 0 0 1 1640.94 952)">G3</text><text font-family="Times New Roman,Times New Roman_MSFontService,sans-serif" font-weight="400" font-size="110" transform="matrix(1 0 0 1 1570.47 1084)">…</text><path d="M1.01092-3.28549 487.134 146.291 485.112 152.862-1.01092 3.28549ZM485.786 135.087 508.026 156.316 477.698 161.371Z" transform="matrix(1 0 0 -1 2685.5 1027.82)"/><text font-family="Times New Roman,Times New Roman_MSFontService,sans-serif" font-weight="400" font-size="110" transform="matrix(1 0 0 1 3256.43 766)">Δ</text><text font-family="Times New Roman,Times New Roman_MSFontService,sans-serif" font-weight="400" font-size="110" transform="matrix(1 0 0 1 3326.89 766)">G4</text><text font-family="Times New Roman,Times New Roman_MSFontService,sans-serif" font-weight="400" font-size="110" transform="matrix(1 0 0 1 3256.43 898)">Δ</text><text font-family="Times New Roman,Times New Roman_MSFontService,sans-serif" font-weight="400" font-size="110" transform="matrix(1 0 0 1 3326.89 898)">G5</text><text font-family="Times New Roman,Times New Roman_MSFontService,sans-serif" font-weight="400" font-size="110" transform="matrix(1 0 0 1 3256.43 1030)">…</text><text font-family="Times New Roman,Times New Roman_MSFontService,sans-serif" font-weight="700" font-size="110" transform="matrix(1 0 0 1 273.625 2072)">Best</text><text font-family="Wingdings,Wingdings_MSFontService,sans-serif" font-weight="400" font-size="110" transform="matrix(1 0 0 1 502.792 2072)"></text><text font-family="Times New Roman,Times New Roman_MSFontService,sans-serif" font-weight="400" font-size="110" transform="matrix(1 0 0 1 638 2072)">Min{</text><text font-family="Times New Roman,Times New Roman_MSFontService,sans-serif" font-weight="400" font-size="110" transform="matrix(1 0 0 1 874.042 2072)">Δ</text><text font-family="Times New Roman,Times New Roman_MSFontService,sans-serif" font-weight="400" font-size="110" transform="matrix(1 0 0 1 944.51 2072)">G1, </text><text font-family="Times New Roman,Times New Roman_MSFontService,sans-serif" font-weight="400" font-size="110" transform="matrix(1 0 0 1 1128.07 2072)">Δ</text><text font-family="Times New Roman,Times New Roman_MSFontService,sans-serif" font-weight="400" font-size="110" transform="matrix(1 0 0 1 1198.54 2072)">G2, </text><text font-family="Times New Roman,Times New Roman_MSFontService,sans-serif" font-weight="400" font-size="110" transform="matrix(1 0 0 1 1382.1 2072)">Δ</text><text font-family="Times New Roman,Times New Roman_MSFontService,sans-serif" font-weight="400" font-size="110" transform="matrix(1 0 0 1 1452.57 2072)">G3, </text><text font-family="Times New Roman,Times New Roman_MSFontService,sans-serif" font-weight="400" font-size="110" transform="matrix(1 0 0 1 1636.14 2072)">Δ</text><text font-family="Times New Roman,Times New Roman_MSFontService,sans-serif" font-weight="400" font-size="110" transform="matrix(1 0 0 1 1706.6 2072)">G4, </text><text font-family="Times New Roman,Times New Roman_MSFontService,sans-serif" font-weight="400" font-size="110" transform="matrix(1 0 0 1 1890.17 2072)">Δ</text><text font-family="Times New Roman,Times New Roman_MSFontService,sans-serif" font-weight="400" font-size="110" transform="matrix(1 0 0 1 1960.64 2072)">G5</text><text font-family="Times New Roman,Times New Roman_MSFontService,sans-serif" font-weight="400" font-size="110" transform="matrix(1 0 0 1 2095.27 2072)">, …</text><text font-family="Times New Roman,Times New Roman_MSFontService,sans-serif" font-weight="400" font-size="110" transform="matrix(1 0 0 1 2260.27 2072)">}</text><path d="M910.5 1545C910.5 1514.9 930.871 1490.5 956 1490.5 981.129 1490.5 1001.5 1514.9 1001.5 1545 1001.5 1575.1 981.129 1599.5 956 1599.5 930.871 1599.5 910.5 1575.1 910.5 1545Z" stroke="#042433" stroke-width="6.875" stroke-miterlimit="8" fill="#156082" fill-rule="evenodd"/><path d="M2440.5 1577C2440.5 1546.9 2460.87 1522.5 2486 1522.5 2511.13 1522.5 2531.5 1546.9 2531.5 1577 2531.5 1607.1 2511.13 1631.5 2486 1631.5 2460.87 1631.5 2440.5 1607.1 2440.5 1577Z" stroke="#042433" stroke-width="6.875" stroke-miterlimit="8" fill="#156082" fill-rule="evenodd"/><text font-family="Times New Roman,Times New Roman_MSFontService,sans-serif" font-weight="400" font-size="83" transform="matrix(1 0 0 1 319.342 1307)">RMSD(pose, Top1) &lt; 0.2 nm</text><text fill="#C00000" font-family="Times New Roman,Times New Roman_MSFontService,sans-serif" font-weight="400" font-size="83" transform="matrix(1 0 0 1 647.191 871)">Top1</text></g></svg>